<?xml version="1.0" encoding="utf-8"?>
<!-- Generator: Adobe Illustrator 23.0.3, SVG Export Plug-In . SVG Version: 6.00 Build 0)  -->
<svg version="1.1" id="Layer_1" xmlns="http://www.w3.org/2000/svg" xmlns:xlink="http://www.w3.org/1999/xlink" x="0px" y="0px"
	 viewBox="0 0 24 24" style="enable-background:new 0 0 24 24;" xml:space="preserve">
<path d="M0,0v24h24V0H0z M6.62,21.03c-0.69-1.18-0.48-2.39-0.29-3.45c0.11-0.61,0.54-2.47-0.9-2.81c-0.62-0.14-1.45,0.06-2.17,0.53
	l-0.83-1.27c1.75-1.14,4.08-1.22,5.14,0.58C8.2,15.68,8,16.83,7.82,17.84c-0.16,0.93-0.3,1.73,0.11,2.43
	c0.54,0.93,2.31,0.84,3.59-0.09c0.34,0.4,0.69,0.78,1.04,1.13C10.6,22.84,7.7,22.9,6.62,21.03z M19.74,22.15
	C13.33,25.08,3.37,5.73,9.64,2.46l1.83-0.9l3.04,5.94L12.7,8.38c-1.91,1.02,2.06,8.78,4.01,7.83c0.08-0.04,1.79-0.88,1.8-0.88
	l3.07,5.92C21.57,21.25,19.85,22.1,19.74,22.15z"/>
</svg>
